<svg id="AwardsTitle" xmlns="http://www.w3.org/2000/svg" width="1920" height="170" viewBox="0 0 1920 170">
  <path id="Path_352" data-name="Path 352" d="M844.44,553.9h0a31.271,31.271,0,0,1-8.94-1.32l-1.93,14.56,8.3-5a5,5,0,0,1,5.15,0l8.3,5-1.93-14.57A30.882,30.882,0,0,1,844.44,553.9Z" transform="translate(0.17 -454.58)" fill="#28a7d7"/>
  <path id="Path_353" data-name="Path 353" d="M844.44,506.42c-9.32,0-18.82,5.79-19.09,18.74.27,12.94,9.77,18.74,19.08,18.74a20.67,20.67,0,0,0,10.22-2.61,3.881,3.881,0,0,1,.48-.3c4.75-2.91,8.23-8.08,8.39-15.83C863.26,512.22,853.76,506.42,844.44,506.42Z" transform="translate(0.17 -454.58)" fill="#28a7d7"/>
  <path id="Path_354" data-name="Path 354" d="M899,526.17c-.91,3.62-4.44,13.4-5.76,17h12c-1.33-3.68-4.83-13.36-5.76-17Z" transform="translate(0.17 -454.58)" fill="#28a7d7"/>
  <path id="Path_355" data-name="Path 355" d="M982.24,555.42c4.43,3.23,11.38-.66,11.17-6.08C988.75,545.85,976.21,548.62,982.24,555.42Z" transform="translate(0.17 -454.58)" fill="#28a7d7"/>
  <path id="Path_356" data-name="Path 356" d="M-.17,454.58v170h1920v-170Zm873.69,70.67c-.18,10.16-4.51,17.7-10.69,22.49l3.76,28.37a5,5,0,0,1-7.53,4.95l-14.62-8.78-14.63,8.78a5,5,0,0,1-7.53-4.95l3.77-28.37c-6.19-4.79-10.52-12.33-10.7-22.5v-.17c.33-18.81,14.88-28.65,29.09-28.65h0c14.21,0,28.76,9.84,29.08,28.66Zm38.35,36.83-3.77-11H890.43l-3.77,11h-9.54l17.22-45.83h9.85l17.22,45.83Zm49,0h-9L945.6,542.3h-.45l-6.27,19.78h-8.9l-10-31.36h9.41l5.19,19.65h.44l6.21-19.65h8.64L956,550.37h.45l5.12-19.65h9.28Zm40.84,0h-8.26v-3.33h-.51c-22,18.19-32.12-25.62.51-15.55.67-7.77-10.47-8.71-14.27-3.07L973.06,536c4.92-7.27,18.69-8.27,24.77-2.85,6.26,4.46,3.17,22.2,3.84,28.93Zm26.62-23.62c-14.75-5.59-11.28,15.59-11.58,23.62h-8.39V530.72h7.87v4.35h.52c2.39-4.67,9.36-7,13.82-4.1Zm35.39,23.62h-7.87V558.3h-.51c-8.09,11.43-25.94.8-24.64-11.9-1.3-12.7,16.55-23.34,24.64-11.91h.51c-.7-3-.5-15-.51-18.24h8.38Zm19.27,1c-6.29.15-12.27-3.16-14.47-9l7.49-3.2c2.73,9.47,20.56,2.35,7-1.54-2.08-.5-5.51-1-7.46-2-19.45-12.61,13.48-26.75,20.19-10.37l-7.23,3c-2.57-7.24-17.7-1.32-6.4,2,18.24,1.37,19.3,20.19.89,21.13Z" transform="translate(0.17 -454.58)" fill="#28a7d7"/>
  <path id="Path_357" data-name="Path 357" d="M1047.42,537.44c-11-.13-11,18,0,17.92C1058.43,555.6,1058.43,537.2,1047.42,537.44Z" transform="translate(0.17 -454.58)" fill="#28a7d7"/>
</svg>
