<svg xmlns="http://www.w3.org/2000/svg" width="306.785" height="200.606" viewBox="0 0 306.785 200.606">
  <g id="tait-communications-vector-logo" transform="translate(61.3 -70.6)">
    <path id="Path_16" data-name="Path 16" d="M575.327,89.614A19.014,19.014,0,1,1,556.313,70.6a19,19,0,0,1,19.014,19.014" transform="translate(-358.483 0)" fill="#00b8e4"/>
    <path id="Path_17" data-name="Path 17" d="M447.227,89.614A19.014,19.014,0,1,1,428.214,70.6a19.211,19.211,0,0,1,19.014,19.014" transform="translate(-281.768 0)" fill="#00b8e4"/>
    <path id="Path_18" data-name="Path 18" d="M195.055,291.489h-.481c-6.9,11.593-19.776,16.286-32.853,16.286-19.254,0-35.821-10.389-35.821-32.371,0-37.305,42.239-38.027,68.914-38.027,0-11.873-9.386-18.532-20.5-18.532-10.389,0-19.014,4.934-25.953,12.836l-17.048-18.292C142.908,201.8,159.956,196.1,177,196.1c37.305,0,47.173,18.773,47.173,54.835v53.832H195.015V291.489Zm-7.9-32.612c-9.868,0-31.609,1-31.609,15.564,0,7.9,8.143,10.63,15.083,10.63,12.6,0,24.188-5.937,24.188-19.254v-7.18h-7.662Z" transform="translate(-112.108 -75.158)" fill="#575a5d"/>
    <rect id="Rectangle_37" data-name="Rectangle 37" width="306.785" height="200.565" transform="translate(-61.3 70.6)" fill="none"/>
    <rect id="Rectangle_38" data-name="Rectangle 38" width="33.575" height="112.156" transform="translate(130.12 118.014)" fill="#575a5d"/>
    <path id="Path_19" data-name="Path 19" d="M-10.38,265.658c-14.561,0-16.045-8.664-16.045-20.257V220.932H3.218v-29.4H-26.425V174H-60v86.925c0,23.707,17.289,33.093,39.752,33.093,7.9,0,16.286-.722,23.707-3.45V262.409C.25,265.177-6.93,265.658-10.38,265.658" transform="translate(-0.779 -61.923)" fill="#575a5d"/>
    <path id="Path_20" data-name="Path 20" d="M607.918,229.8v-29.4H578.275V188.8H544.7v81.028c0,23.707,17.289,33.093,39.752,33.093,7.9,0,16.286-.722,23.707-3.45V271.313c-2.968,2.728-10.109,3.209-13.839,3.209-14.561,0-16.045-8.664-16.045-20.257V229.8Z" transform="translate(-362.915 -70.786)" fill="#575a5d"/>
    <path id="Path_21" data-name="Path 21" d="M439.718,532.895h0A7.59,7.59,0,0,1,433.3,536.1c-3.69,0-6.9-2.206-6.9-6.659,0-7.421,8.143-7.662,13.358-7.662a3.768,3.768,0,0,0-3.971-3.971,6.044,6.044,0,0,0-4.934,2.728l-3.209-3.69a12.358,12.358,0,0,1,8.664-3.45c7.18,0,8.905,3.971,8.905,11.111v11.111h-5.736Zm-1.444-6.94c-1.966,0-5.937.241-5.937,3.209a2.781,2.781,0,0,0,2.968,2.487c2.487,0,4.693-1.484,4.693-3.971V526.2Z" transform="translate(-292.068 -265.179)" fill="#00b8e4"/>
    <path id="Path_22" data-name="Path 22" d="M-50.67,513.9c5.415,0,8.905,3.209,9.627,7.9H-46.98c-.241-1.725-1.725-2.728-3.69-2.728-2.728,0-4.453,2.487-4.453,6.177s1.725,6.178,4.453,6.178a3.517,3.517,0,0,0,3.69-2.728h5.937c-.722,4.693-4.212,7.9-9.627,7.9-6.177,0-10.63-4.693-10.63-11.352,0-6.9,4.212-11.352,10.63-11.352" transform="translate(0 -265.479)" fill="#00b8e4"/>
    <path id="Path_23" data-name="Path 23" d="M3.53,536.7c-6.418,0-10.63-4.693-10.63-11.352S-2.647,514,3.53,514c6.418,0,10.63,4.693,10.63,11.352C14.4,532.011,9.948,536.7,3.53,536.7m0-17.77c-2.968,0-4.693,2.728-4.693,6.418s1.725,6.177,4.693,6.177,4.693-2.728,4.693-6.177c0-3.731-1.484-6.418-4.693-6.418" transform="translate(-32.459 -265.539)" fill="#00b8e4"/>
    <path id="Path_24" data-name="Path 24" d="M77.31,512.941c4.453,0,7.18,3.209,7.18,8.143V535.4H78.312V522.327c0-2.487-1-3.971-3.209-3.971a3.629,3.629,0,0,0-3.45,2.728v14.08H65.436V522.086c0-2.487-1-3.971-3.209-3.971a3.6,3.6,0,0,0-3.45,2.968v14.08H52.6V513.181h6.177v1.725c1-1.484,2.968-2.206,5.415-2.206a7.552,7.552,0,0,1,5.937,2.728c2.006-1.244,3.971-2.487,7.18-2.487" transform="translate(-68.211 -264.76)" fill="#00b8e4"/>
    <path id="Path_25" data-name="Path 25" d="M165.829,513.3c4.453,0,7.18,3.209,7.18,8.143v14.32h-6.177V522.687c0-2.487-1-3.971-3.209-3.971a3.6,3.6,0,0,0-3.45,2.968v14.08H154V522.687c0-2.487-1-3.971-2.968-3.971a3.6,3.6,0,0,0-3.45,2.968v14.08H141.4V513.781h6.177v1.725c1-1.484,2.968-2.206,5.415-2.206a7.552,7.552,0,0,1,5.937,2.728,10.214,10.214,0,0,1,6.9-2.728" transform="translate(-121.391 -265.119)" fill="#00b8e4"/>
    <path id="Path_26" data-name="Path 26" d="M249.676,536.642H243.5v-1.965a7.419,7.419,0,0,1-5.937,2.487c-4.934,0-7.662-3.209-7.662-8.143V514.7h6.177v13.077c0,2.206,1.243,3.971,3.45,3.971a4.068,4.068,0,0,0,3.971-2.969V514.941h6.177Z" transform="translate(-174.391 -265.958)" fill="#00b8e4"/>
    <path id="Path_27" data-name="Path 27" d="M289.941,513.821h6.177v1.965a7.419,7.419,0,0,1,5.937-2.487c4.934,0,7.662,3.209,7.662,8.143v14.32h-6.177V522.687c0-2.206-1.244-3.971-3.69-3.971a4.068,4.068,0,0,0-3.971,2.968v13.839H289.7Z" transform="translate(-210.203 -265.119)" fill="#00b8e4"/>
    <path id="Path_28" data-name="Path 28" d="M600.941,513.121h6.177v1.966a7.784,7.784,0,0,1,5.937-2.487c4.934,0,7.662,3.209,7.662,8.143v14.32h-6.177V521.986c0-2.206-1.243-3.971-3.69-3.971a4.068,4.068,0,0,0-3.971,2.968v13.839H600.7Z" transform="translate(-396.451 -264.7)" fill="#00b8e4"/>
    <path id="Path_29" data-name="Path 29" d="M351.89,496.9a3.458,3.458,0,1,1,0-6.9,3.375,3.375,0,0,1,3.45,3.45,3.2,3.2,0,0,1-3.45,3.45m2.968,24.95h-6.177V499.868h6.177Z" transform="translate(-245.237 -251.166)" fill="#00b8e4"/>
    <path id="Path_30" data-name="Path 30" d="M382.83,513.3c5.415,0,8.905,3.209,9.627,7.9H386.52c-.241-1.725-1.725-2.728-3.69-2.728-2.728,0-4.453,2.487-4.453,6.177s1.725,6.177,4.453,6.177a3.517,3.517,0,0,0,3.69-2.728h5.937c-.722,4.693-4.212,7.9-9.627,7.9-6.177,0-10.63-4.693-10.63-11.352.241-6.659,4.453-11.352,10.63-11.352" transform="translate(-259.61 -265.119)" fill="#00b8e4"/>
    <path id="Path_31" data-name="Path 31" d="M481.8,499.8h5.937v5.937h4.693v4.934h-4.693V520.3a2.241,2.241,0,0,0,2.487,2.487,5.132,5.132,0,0,0,2.728-.722v5.415a8.107,8.107,0,0,1-3.971.722c-4.453,0-7.18-2.206-7.18-7.18Z" transform="translate(-325.246 -257.035)" fill="#00b8e4"/>
    <path id="Path_32" data-name="Path 32" d="M520.59,496.9a3.458,3.458,0,1,1,3.69-3.45,3.533,3.533,0,0,1-3.69,3.45m3.249,24.71h-6.177V499.627h6.177Z" transform="translate(-346.266 -251.166)" fill="#00b8e4"/>
    <path id="Path_33" data-name="Path 33" d="M552.13,536.1c-6.418,0-10.63-4.693-10.63-11.352s4.453-11.352,10.63-11.352c6.418,0,10.63,4.693,10.63,11.352.241,6.659-4.212,11.352-10.63,11.352m0-17.81c-2.968,0-4.693,2.728-4.693,6.418s1.725,6.177,4.693,6.177,4.693-2.728,4.693-6.177c0-3.69-1.484-6.418-4.693-6.418" transform="translate(-360.998 -265.179)" fill="#00b8e4"/>
    <path id="Path_34" data-name="Path 34" d="M662.637,528.745a3.786,3.786,0,0,0,3.69,2.487c1.966,0,2.968-.722,2.968-2.206,0-1-.722-1.484-2.206-1.966l-4.453-1c-3.45-.722-5.7-2.487-5.7-6.177,0-4.212,3.69-7.18,8.664-7.18,5.415,0,8.664,2.728,9.386,6.659h-5.7a3.345,3.345,0,0,0-3.45-2.206c-1.484,0-2.968.722-2.968,1.966,0,1,.481,1.484,1.966,1.725l4.453,1c3.69,1,5.937,2.969,5.937,6.418,0,4.453-3.971,7.18-8.905,7.18-5.415,0-9.146-2.487-9.627-6.9Z" transform="translate(-429.988 -264.76)" fill="#00b8e4"/>
  </g>
</svg>
