<svg id="VexTitle" xmlns="http://www.w3.org/2000/svg" width="1924.7" height="170" viewBox="0 0 1924.7 170">
  <path id="Path_358" data-name="Path 358" d="M880.64,605.94h-9.87c-2.34,0-4.23.7-4.23,3.82v6.72c0,3.14,1.89,3.83,4.23,3.83h9.87c2.33,0,4.22-.69,4.22-3.83v-6.72C884.86,606.64,883,605.94,880.64,605.94Z" transform="translate(-0.11 -479.62)" fill="#ff000a"/>
  <path id="Path_359" data-name="Path 359" d="M957.74,606h-9.87c-2.34,0-4.23.7-4.23,3.82v6.72c0,3.14,1.89,3.83,4.23,3.83h9.88c2.33,0,4.22-.69,4.22-3.83v-6.72C962,606.66,960.07,606,957.74,606Z" transform="translate(-0.11 -479.62)" fill="#ff000a"/>
  <path id="Path_360" data-name="Path 360" d="M919,613.88H906.5v6.28h12.88c2.24,0,3.08-.82,3.08-2.41v-1.29C922.45,614.22,921.21,613.88,919,613.88Z" transform="translate(-0.11 -479.62)" fill="#ff000a"/>
  <path id="Path_361" data-name="Path 361" d="M921.76,609.65V608c0-1.64-1.82-1.9-2.57-1.9h-12.7v5.75h12.58C920.39,611.89,921.76,611.46,921.76,609.65Z" transform="translate(-0.11 -479.62)" fill="#ff000a"/>
  <path id="Path_362" data-name="Path 362" d="M1087.17,577.77a2.409,2.409,0,0,0-1,1,2.631,2.631,0,0,0-.37,1.37,2.7,2.7,0,0,0,.37,1.36,2.63,2.63,0,0,0,1,1,2.7,2.7,0,0,0,1.36.37,2.871,2.871,0,0,0,1.37-.37,2.751,2.751,0,0,0,1-1,2.8,2.8,0,0,0,.37-1.36,2.728,2.728,0,0,0-.37-1.37,2.531,2.531,0,0,0-1-1,2.65,2.65,0,0,0-1.35-.36,2.68,2.68,0,0,0-1.38.36Zm2.48,1.07a1.331,1.331,0,0,1,.17.52,1,1,0,0,1-.28.68,1.171,1.171,0,0,1-.74.33,1.113,1.113,0,0,1,.3.17,5.164,5.164,0,0,1,.52.71l.43.69h-.7l-.31-.56a2.521,2.521,0,0,0-.6-.81.72.72,0,0,0-.45-.13h-.33v1.5h-.58v-3.57h1.21a3.468,3.468,0,0,1,.91.09.89.89,0,0,1,.45.38Z" transform="translate(-0.11 -479.62)" fill="#ff000a"/>
  <path id="Path_363" data-name="Path 363" d="M1087.65,580h.69a1.08,1.08,0,0,0,.68-.14.5.5,0,0,0,.18-.39.541.541,0,0,0-.08-.28.47.47,0,0,0-.25-.19,1.561,1.561,0,0,0-.57-.06h-.65Z" transform="translate(-0.11 -479.62)" fill="#ff000a"/>
  <path id="Path_364" data-name="Path 364" d="M840.92,606.21H829.86v6.91h11.68c2.71,0,3.85-.72,3.85-2.61v-1.63C845.39,606.86,844.53,606.21,840.92,606.21Z" transform="translate(-0.11 -479.62)" fill="#ff000a"/>
  <path id="Path_365" data-name="Path 365" d="M.11,479.62v170h1924.7v-170Zm1091.26,98.89a3.38,3.38,0,0,1,0,3.29,2.88,2.88,0,0,1-1.21,1.21,3.31,3.31,0,0,1-3.28,0,3,3,0,0,1-1.22-1.21,3.35,3.35,0,0,1,0-3.29,3,3,0,0,1,1.23-1.23,3.29,3.29,0,0,1,1.62-.42h0a3.4,3.4,0,0,1,1.62.42,3.1,3.1,0,0,1,1.24,1.23ZM847.84,610.73c0,2.53-1.45,3.22-3.36,3.36,2.48.45,3.08,1.73,3.08,3.36v4.63h-2.24v-3.94c0-2.81-1.37-3.16-3.59-3.16H829.86v7.1h-2.43V604.16h14.39c5.2,0,6,1.71,6,5.1Zm39.45,4.9c0,4.55-1.53,6.72-6.41,6.72H870.51c-4.86,0-6.4-2.24-6.4-6.72v-4.92c0-4.56,1.54-6.72,6.4-6.72h10.37c4.87,0,6.41,2.24,6.41,6.72Zm37.59,2.75c0,2.51-2.24,3.82-5.22,3.82h-15.6v-18h15.36c3.73,0,4.77,1.94,4.77,4v1.6c0,1.29-.72,2.61-2.9,2.83v.1c1.9.09,3.59.82,3.59,3.55Zm.62-76.13-40.13,48a.93.93,0,0,1-.75.34H867.94a.93.93,0,0,1-.75-.34l-39.57-48a.955.955,0,0,1,.75-1.56h17.14a1,1,0,0,1,.76.37s28.61,35.6,30,37.4L906.86,541a1,1,0,0,1,.75-.36h17.14a1,1,0,0,1,.75,1.62Zm6,12a28.751,28.751,0,0,1,3.14-13.56h0a29,29,0,0,1-3.15-13.57c0-10.94,5.48-20.16,12.15-20.16h42.22c2.24,0,4.1,3.06,4.1,6.78s-1.85,6.78-4.1,6.78H943.7c-2.24,0-4,3.06-4,6.57s1.59,6.9,4,6.9h42.21c2.24,0,4.1,3,4.1,6.71s-1.84,6.72-4.1,6.72H943.7c-2.38,0-4,3.36-4,6.89s1.71,6.56,4,6.56h42.21c2.24,0,4.1,3.07,4.1,6.79s-1.84,6.78-4.1,6.78H943.7c-6.7-.06-12.15-9.25-12.15-20.21Zm32.84,61.4c0,4.55-1.53,6.72-6.4,6.72H947.67c-4.86,0-6.4-2.24-6.4-6.72l-.06-4.92c0-4.56,1.54-6.72,6.41-6.72H958c4.87,0,6.4,2.24,6.4,6.72Zm35.44-9.49h-9.1v16H988.3v-16h-9.1v-2h20.63Zm17.79,16h-2.44v-18h2.44Zm38.42-4.82c0,3.26-1,5-6.08,5h-9.21c-4.86,0-6.4-2.24-6.4-6.72l.11-4.92c0-4.56,1.54-6.72,6.41-6.72h9.32c4.43,0,5.6,2.06,5.6,4.48V610h-2.12v-.82c0-3.06-1.9-3.2-4.14-3.2h-8.44c-2.34,0-4.22.69-4.22,3.82v6.72c0,3.13,1.88,3.83,4.22,3.83h8.49c3.28,0,4.22-.7,4.22-3.14v-1.12H1056Zm13.7-26.88-25.37-17.65-25.59,17.67a1,1,0,0,1-.56.17H997.39a1,1,0,0,1-.93-.68,1.4,1.4,0,0,1,0-.29,1,1,0,0,1,.44-.81l35.84-24-33.07-22.4a1,1,0,0,1-.43-.8,1.4,1.4,0,0,1,0-.29,1,1,0,0,1,.94-.7h20.4a1,1,0,0,1,.56.18l23.23,16.07,23.1-16.07a1,1,0,0,1,.56-.18h20.29a1,1,0,0,1,1,.69,1.4,1.4,0,0,1,0,.29,1,1,0,0,1-.44.81l-33.18,22.4,35.66,24a1,1,0,0,1,.43.81,1.4,1.4,0,0,1,0,.29,1,1,0,0,1-.93.68H1070.3a1,1,0,0,1-.56-.2Zm23.08,27.08c0,4.48-3.63,4.75-7.23,4.75h-6.72c-3.55,0-6.72-.62-6.72-4.55v-1.25h2.24v1.26c0,1.76.94,2.61,4,2.61h7.55c3.53,0,4.58-.75,4.58-3.36,0-2.24-.9-2.83-3.93-2.83h-4.58c-7.42,0-9.87-.45-9.87-5.22,0-4.1,2.45-5,7.46-5h5.24c6,0,7.56,1.55,7.56,4.75v.62h-2.24c0-2.86-.36-3.36-6.72-3.36h-2.59c-4.69,0-6.36.24-6.36,3.2,0,2.14.68,2.85,4.48,2.85h7.2c4.75,0,6.72,1.37,6.72,4.43Z" transform="translate(-0.11 -479.62)" fill="#ff000a"/>
</svg>
