<svg xmlns="http://www.w3.org/2000/svg" width="1920" height="170" viewBox="0 0 1920 170">
  <g id="Sponsor_Header" data-name="Sponsor Header" transform="translate(-0.23 -489.441)">
    <path id="Path_374" data-name="Path 374" d="M961.766,574.669a7.946,7.946,0,0,0-2.657-1.76,8.238,8.238,0,0,0-3.1-.607,8.153,8.153,0,0,0-3.136.607,8,8,0,0,0-2.624,1.76,8.355,8.355,0,0,0-1.824,2.816,10.945,10.945,0,0,0,0,7.552,8.35,8.35,0,0,0,1.824,2.817,8,8,0,0,0,2.624,1.759,8.1,8.1,0,0,0,3.136.609,8.181,8.181,0,0,0,3.1-.609,7.943,7.943,0,0,0,2.657-1.759,8.381,8.381,0,0,0,1.824-2.817,10.945,10.945,0,0,0,0-7.552A8.386,8.386,0,0,0,961.766,574.669Z" fill="#9128d7"/>
    <path id="Path_375" data-name="Path 375" d="M843.427,551.917h0a14.117,14.117,0,0,0-19.908-.038l-.049.049L819.8,555.6a5,5,0,0,1-7.071,0l-3.681-3.682A14.1,14.1,0,0,0,789.1,571.864l27.162,27.162,27.164-27.163a14.116,14.116,0,0,0,.005-19.94Z" fill="#9128d7"/>
    <path id="Path_376" data-name="Path 376" d="M1065.635,574.669a7.933,7.933,0,0,0-2.656-1.76,8.322,8.322,0,0,0-6.24,0,8.016,8.016,0,0,0-2.624,1.76,8.371,8.371,0,0,0-1.824,2.816,10.945,10.945,0,0,0,0,7.552,8.366,8.366,0,0,0,1.824,2.817,8.013,8.013,0,0,0,2.624,1.759,8.3,8.3,0,0,0,6.24,0,7.93,7.93,0,0,0,2.656-1.759,8.336,8.336,0,0,0,1.824-2.817,10.945,10.945,0,0,0,0-7.552A8.341,8.341,0,0,0,1065.635,574.669Z" fill="#9128d7"/>
    <path id="Path_377" data-name="Path 377" d="M924.838,574.733a8.369,8.369,0,0,0-2.656-1.792,8.039,8.039,0,0,0-3.168-.639,8.393,8.393,0,0,0-3.168.607,7.936,7.936,0,0,0-2.657,1.76,8.789,8.789,0,0,0-1.856,2.816,10.492,10.492,0,0,0,0,7.552,8.783,8.783,0,0,0,1.856,2.817,7.933,7.933,0,0,0,2.657,1.759,8.336,8.336,0,0,0,3.168.609,7.988,7.988,0,0,0,3.168-.641,8.319,8.319,0,0,0,2.656-1.792,8.774,8.774,0,0,0,1.856-2.815,10.152,10.152,0,0,0,0-7.424A8.773,8.773,0,0,0,924.838,574.733Z" fill="#9128d7"/>
    <path id="Path_378" data-name="Path 378" d="M.23,489.441v170h1920v-170ZM850.5,578.936l-30.7,30.7a5,5,0,0,1-7.071,0l-30.7-30.7a24.1,24.1,0,0,1,34.089-34.089l.145.146.11-.11c.014-.015.028-.029.043-.043a24.125,24.125,0,0,1,34.039-.035l.063.062A24.129,24.129,0,0,1,850.5,578.936Zm45,11.446a13.228,13.228,0,0,1-3.68,4.256,16.027,16.027,0,0,1-5.056,2.5,19.4,19.4,0,0,1-5.5.832,18.958,18.958,0,0,1-5.632-.832,16.281,16.281,0,0,1-4.928-2.5,17.253,17.253,0,0,1-3.9-4.065,19.642,19.642,0,0,1-2.624-5.6l8.128-3.2a12.4,12.4,0,0,0,3.136,5.728,7.894,7.894,0,0,0,5.888,2.272,9.527,9.527,0,0,0,2.592-.351,7.644,7.644,0,0,0,2.24-1.025,4.96,4.96,0,0,0,1.568-1.7,4.744,4.744,0,0,0,.576-2.368,5.709,5.709,0,0,0-.448-2.3,5.411,5.411,0,0,0-1.5-1.92,13.44,13.44,0,0,0-2.752-1.727,41.658,41.658,0,0,0-4.192-1.729l-2.816-1.023a21.584,21.584,0,0,1-3.744-1.729,16.314,16.314,0,0,1-3.424-2.624,12.914,12.914,0,0,1-2.528-3.616,10.781,10.781,0,0,1-.992-4.7,12.047,12.047,0,0,1,1.056-5.023,12.269,12.269,0,0,1,3.008-4.1,14.094,14.094,0,0,1,4.672-2.753,17.574,17.574,0,0,1,6.048-.991,17.392,17.392,0,0,1,5.984.927,14.761,14.761,0,0,1,4.288,2.369,13.185,13.185,0,0,1,2.848,3.168,15.31,15.31,0,0,1,1.6,3.263l-7.616,3.2a8.126,8.126,0,0,0-2.336-3.456,6.657,6.657,0,0,0-4.64-1.536,7.9,7.9,0,0,0-4.672,1.313,4.015,4.015,0,0,0-1.856,3.424,4.333,4.333,0,0,0,1.792,3.487,19.47,19.47,0,0,0,5.7,2.784l2.88.96a33.131,33.131,0,0,1,5.024,2.208,15.731,15.731,0,0,1,3.9,2.977,12.1,12.1,0,0,1,2.5,3.935,13.9,13.9,0,0,1,.864,5.088A12.53,12.53,0,0,1,895.494,590.382Zm39.072-2.4a16.446,16.446,0,0,1-3.3,5.281,15.339,15.339,0,0,1-4.8,3.456,13.581,13.581,0,0,1-5.728,1.248,11.856,11.856,0,0,1-6.016-1.408,9.511,9.511,0,0,1-3.584-3.393h-.512l.512,4.481v13.12h-8.384V565.581h7.872v3.776h.512a9.507,9.507,0,0,1,3.584-3.391,11.836,11.836,0,0,1,6.016-1.408,13.58,13.58,0,0,1,5.728,1.248,15.305,15.305,0,0,1,4.8,3.456,16.413,16.413,0,0,1,3.3,5.279,19.176,19.176,0,0,1,0,13.44Zm36.831,0a15.506,15.506,0,0,1-8.7,8.737,18.545,18.545,0,0,1-13.376,0,15.506,15.506,0,0,1-8.7-8.737,18.717,18.717,0,0,1,0-13.44,15.511,15.511,0,0,1,8.7-8.735,18.544,18.544,0,0,1,13.376,0,15.511,15.511,0,0,1,8.7,8.735,18.716,18.716,0,0,1,0,13.44Zm35.808,8.96H998.82V578.957a7.216,7.216,0,0,0-1.5-5.023,5.661,5.661,0,0,0-4.382-1.632,6.128,6.128,0,0,0-3.041.735,7.106,7.106,0,0,0-2.241,1.984,8.964,8.964,0,0,0-1.407,2.945,13.222,13.222,0,0,0-.48,3.615v15.36h-8.384v-31.36h7.872v4.1h.512a10.63,10.63,0,0,1,3.967-3.744,11.607,11.607,0,0,1,5.7-1.376,13.053,13.053,0,0,1,5.184.96,9.5,9.5,0,0,1,3.68,2.719,12.012,12.012,0,0,1,2.176,4.224,19.111,19.111,0,0,1,.736,5.473Zm31.424-5.376a10.449,10.449,0,0,1-2.721,3.3,13.363,13.363,0,0,1-4.222,2.273,17.06,17.06,0,0,1-5.473.832,17.951,17.951,0,0,1-5.473-.769,15.068,15.068,0,0,1-4.159-2.015,13.138,13.138,0,0,1-2.976-2.88,13.842,13.842,0,0,1-1.856-3.3l7.487-3.2a8.107,8.107,0,0,0,2.912,3.616,7.311,7.311,0,0,0,4.065,1.183,6.89,6.89,0,0,0,3.648-.832,2.36,2.36,0,0,0,1.344-1.984,2.454,2.454,0,0,0-1.12-2.08,11.614,11.614,0,0,0-3.872-1.439l-4.416-.96a15.3,15.3,0,0,1-3.04-1.025,11.837,11.837,0,0,1-2.849-1.792,9.061,9.061,0,0,1-2.111-2.624,7.4,7.4,0,0,1-.832-3.584,8.312,8.312,0,0,1,.992-4.1,9.236,9.236,0,0,1,2.72-3.04,13.056,13.056,0,0,1,4.063-1.92,18.112,18.112,0,0,1,5.025-.671,17.668,17.668,0,0,1,8,1.759,10.844,10.844,0,0,1,5.184,5.6l-7.232,2.944a5.549,5.549,0,0,0-2.624-2.687,7.9,7.9,0,0,0-3.456-.832,6.439,6.439,0,0,0-3.136.735,2.163,2.163,0,0,0-1.345,1.889,1.93,1.93,0,0,0,1.121,1.727,12.968,12.968,0,0,0,3.039,1.153l4.8,1.151a13.883,13.883,0,0,1,7.136,3.681,8.517,8.517,0,0,1,2.336,5.983A8.37,8.37,0,0,1,1038.629,591.565Zm36.639-3.584a15.5,15.5,0,0,1-8.7,8.737,18.542,18.542,0,0,1-13.375,0,15.5,15.5,0,0,1-8.7-8.737,18.716,18.716,0,0,1,0-13.44,15.508,15.508,0,0,1,8.7-8.735,18.541,18.541,0,0,1,13.375,0,15.508,15.508,0,0,1,8.7,8.735,18.716,18.716,0,0,1,0,13.44Zm25.951-14.656a7.942,7.942,0,0,0-1.7-.607,9.805,9.805,0,0,0-2.272-.225,7.176,7.176,0,0,0-3.136.676,6.89,6.89,0,0,0-2.4,1.9,8.932,8.932,0,0,0-1.535,2.864,11.238,11.238,0,0,0-.545,3.569v15.441h-8.384v-31.36h7.872v4.353h.512a8.114,8.114,0,0,1,1.536-2.113,11.235,11.235,0,0,1,2.143-1.673,12.124,12.124,0,0,1,2.561-1.152,8.931,8.931,0,0,1,2.721-.438,10.031,10.031,0,0,1,2.847.355,7.228,7.228,0,0,1,2.016.925Zm29.633,18.24a10.449,10.449,0,0,1-2.721,3.3,13.358,13.358,0,0,1-4.223,2.273,17.053,17.053,0,0,1-5.472.832,17.945,17.945,0,0,1-5.473-.769,15.056,15.056,0,0,1-4.159-2.015,13.138,13.138,0,0,1-2.976-2.88,13.8,13.8,0,0,1-1.856-3.3l7.487-3.2a8.1,8.1,0,0,0,2.912,3.616,7.309,7.309,0,0,0,4.065,1.183,6.89,6.89,0,0,0,3.648-.832,2.362,2.362,0,0,0,1.344-1.984,2.454,2.454,0,0,0-1.12-2.08,11.614,11.614,0,0,0-3.872-1.439l-4.416-.96a15.3,15.3,0,0,1-3.041-1.025,11.831,11.831,0,0,1-2.848-1.792,9.027,9.027,0,0,1-2.111-2.624,7.4,7.4,0,0,1-.832-3.584,8.311,8.311,0,0,1,.992-4.1,9.242,9.242,0,0,1,2.719-3.04,13.061,13.061,0,0,1,4.064-1.92,18.1,18.1,0,0,1,5.024-.671,17.662,17.662,0,0,1,8,1.759,10.842,10.842,0,0,1,5.185,5.6l-7.233,2.944a5.539,5.539,0,0,0-2.624-2.687,7.9,7.9,0,0,0-3.456-.832,6.438,6.438,0,0,0-3.135.735,2.163,2.163,0,0,0-1.345,1.889,1.93,1.93,0,0,0,1.121,1.727,12.968,12.968,0,0,0,3.039,1.153l4.8,1.151a13.883,13.883,0,0,1,7.136,3.681,8.521,8.521,0,0,1,2.336,5.983A8.383,8.383,0,0,1,1130.852,591.565Z" fill="#9128d7"/>
  </g>
</svg>
